<svg width="24" height="24" viewBox="0 0 24 24" fill="none" xmlns="http://www.w3.org/2000/svg">
<g clip-path="url(#clip0_4_750)">
<path d="M7.563 19.419C7.563 20.3688 7.94029 21.2796 8.61185 21.9512C9.28342 22.6227 10.1943 23 11.144 23C12.0937 23 13.0046 22.6227 13.6762 21.9512C14.3477 21.2796 14.725 20.3688 14.725 19.419C14.725 18.4693 14.3477 17.5584 13.6762 16.8869C13.0046 16.2153 12.0937 15.838 11.144 15.838C10.1943 15.838 9.28342 16.2153 8.61185 16.8869C7.94029 17.5584 7.563 18.4693 7.563 19.419Z" stroke="black" stroke-width="2"/>
<path d="M14.7248 19.385V4.99658H15.9523C19.7939 4.99658 22.9081 8.11083 22.9081 11.9524" stroke="black" stroke-width="2"/>
<path d="M1.04317 6.026C1.04317 6.9925 1.82667 7.776 2.79317 7.776C3.44364 7.776 4.01123 7.42111 4.31286 6.89439C4.32889 6.8664 4.34417 6.83792 4.35867 6.80898C4.47673 6.57339 4.54317 6.30746 4.54317 6.026C4.54317 5.78116 4.49289 5.54806 4.40209 5.33647C4.38854 5.30489 4.37409 5.27379 4.35876 5.24321C4.07145 4.6697 3.47829 4.276 2.79317 4.276C1.82667 4.276 1.04317 5.0595 1.04317 6.026Z" stroke="black" stroke-width="2"/>
<path d="M7.5 9.27588C7.5 10.2424 8.2835 11.0259 9.25 11.0259C9.90047 11.0259 10.4681 10.671 10.7697 10.1443C10.7857 10.1163 10.801 10.0878 10.8155 10.0589C10.9336 9.82327 11 9.55734 11 9.27588C11 9.03104 10.9497 8.79794 10.8589 8.58634C10.8454 8.55477 10.8309 8.52367 10.8156 8.49308C10.5283 7.91958 9.93512 7.52588 9.25 7.52588C8.56489 7.52588 7.97173 7.91957 7.68442 8.49307C7.56641 8.72861 7.5 8.99449 7.5 9.27588Z" stroke="black" stroke-width="2"/>
<path d="M4.28915 6.92065L7.71077 8.63123" stroke="black" stroke-width="2"/>
<path d="M9.24989 1C8.28339 1 7.49989 1.7835 7.49989 2.75C7.49989 3.03128 7.56625 3.29706 7.68417 3.53254C7.97144 4.10618 8.56467 4.5 9.24989 4.5C9.90036 4.5 10.4679 4.14511 10.7696 3.61839C10.7856 3.5904 10.8009 3.56192 10.8154 3.53298C10.9334 3.29739 10.9999 3.03146 10.9999 2.75C10.9999 2.50516 10.9496 2.27206 10.8588 2.06046C10.8453 2.02889 10.8308 1.99779 10.8155 1.96721C10.5282 1.3937 9.93501 1 9.24989 1Z" stroke="black" stroke-width="2"/>
<path d="M4.28915 5.13128L7.71051 3.42029" stroke="black" stroke-width="2"/>
</g>
<defs>
<clipPath id="clip0_4_750">
<rect width="24" height="24" fill="white"/>
</clipPath>
</defs>
</svg>
