<svg width="24" height="24" viewBox="0 0 24 24" fill="none" xmlns="http://www.w3.org/2000/svg">
<g clip-path="url(#clip0_1_1031)">
<path d="M11.8134 14.5023C11.1548 15.1609 10.0869 15.1609 9.4283 14.5023C8.76967 13.8437 8.76967 12.7758 9.4283 12.1172C10.0869 11.4585 11.1548 11.4585 11.8134 12.1172C12.472 12.7758 12.472 13.8437 11.8134 14.5023Z" stroke="black" stroke-width="2"/>
<path d="M4.65674 15.7393L8.19227 19.2748" stroke="black" stroke-width="2"/>
<path d="M19.6231 8.00606L17.9032 8.35004L16.0557 10.6739C17.3221 12.3513 17.191 14.748 15.6625 16.2765L15.3534 16.5856C14.7416 17.1974 14.0246 17.6399 13.2606 17.9131C13.0511 19.1543 12.4674 20.3446 11.5096 21.3025C9.46622 23.3459 6.15325 23.3459 4.10988 21.3025L2.62994 19.8226C0.586569 17.7792 0.586569 14.4662 2.62994 12.4228C3.58764 11.4651 4.77775 10.8815 6.01872 10.6719C6.29194 9.9077 6.73452 9.19052 7.34647 8.57856L7.65556 8.26948C9.18405 6.74099 11.5808 6.60992 13.2582 7.87627L15.5782 6.03183L15.9233 4.3062L18.7299 1.49957L22.4298 5.19943L19.6231 8.00606Z" stroke="black" stroke-width="2"/>
</g>
<defs>
<clipPath id="clip0_1_1031">
<rect width="24" height="24" fill="white"/>
</clipPath>
</defs>
</svg>
