<svg width="24" height="24" viewBox="0 0 24 24" fill="none" xmlns="http://www.w3.org/2000/svg">
<g clip-path="url(#clip0_4_894)">
<path d="M4.22183 19.7782C2.15893 17.7153 1 14.9174 1 12C1 9.08262 2.15893 6.28473 4.22183 4.22183C6.28473 2.15893 9.08262 1 12 1C14.9174 1 17.7153 2.15893 19.7782 4.22183C21.8411 6.28473 23 9.08262 23 12C23 13.7545 22.5808 15.4658 21.798 17H18C14.6863 17 12 19.6863 12 23C9.08262 23 6.28473 21.8411 4.22183 19.7782Z" stroke="black" stroke-width="2"/>
<path d="M8.87555 7.3385C8.46103 7.3385 8.125 7.00247 8.125 6.58795C8.125 6.17343 8.46103 5.8374 8.87555 5.8374" stroke="black" stroke-width="2"/>
<path d="M8.87445 5.83728C9.28897 5.83728 9.625 6.17331 9.625 6.58783C9.625 7.00235 9.28897 7.33838 8.87445 7.33838" stroke="black" stroke-width="2"/>
<path d="M15.1255 7.3385C14.711 7.3385 14.375 7.00247 14.375 6.58795C14.375 6.17343 14.711 5.8374 15.1255 5.8374" stroke="black" stroke-width="2"/>
<path d="M15.1245 5.83728C15.539 5.83728 15.875 6.17331 15.875 6.58783C15.875 7.00235 15.539 7.33838 15.1245 7.33838" stroke="black" stroke-width="2"/>
<path d="M18.2525 12.7511C17.838 12.7511 17.502 12.4151 17.502 12.0005C17.502 11.586 17.838 11.25 18.2525 11.25" stroke="black" stroke-width="2"/>
<path d="M18.2514 11.2499C18.6659 11.2499 19.002 11.5859 19.002 12.0004C19.002 12.4149 18.6659 12.751 18.2514 12.751" stroke="black" stroke-width="2"/>
<path d="M5.7525 12.7511C5.33799 12.7511 5.00195 12.4151 5.00195 12.0005C5.00195 11.586 5.33799 11.25 5.7525 11.25" stroke="black" stroke-width="2"/>
<path d="M5.7514 11.2499C6.16592 11.2499 6.50195 11.5859 6.50195 12.0004C6.50195 12.4149 6.16592 12.751 5.7514 12.751" stroke="black" stroke-width="2"/>
</g>
<defs>
<clipPath id="clip0_4_894">
<rect width="24" height="24" fill="white"/>
</clipPath>
</defs>
</svg>
