<svg width="24" height="24" viewBox="0 0 24 24" fill="none" xmlns="http://www.w3.org/2000/svg">
<g clip-path="url(#clip0_1_1047)">
<path d="M1 12C1 14.9174 2.15893 17.7153 4.22183 19.7782C6.28473 21.8411 9.08262 23 12 23C14.9174 23 17.7153 21.8411 19.7782 19.7782C21.8411 17.7153 23 14.9174 23 12C23 9.08262 21.8411 6.28473 19.7782 4.22183C17.7153 2.15893 14.9174 1 12 1C9.08262 1 6.28473 2.15893 4.22183 4.22183C2.15893 6.28473 1 9.08262 1 12Z" stroke="black" stroke-width="2"/>
<path d="M9.5 18V13M9.5 13V7H14C14.8284 7 15.5 7.67157 15.5 8.5V11.5C15.5 12.3284 14.8284 13 14 13H9.5Z" stroke="black" stroke-width="2"/>
</g>
<defs>
<clipPath id="clip0_1_1047">
<rect width="24" height="24" fill="white"/>
</clipPath>
</defs>
</svg>
