<svg width="24" height="24" viewBox="0 0 24 24" fill="none" xmlns="http://www.w3.org/2000/svg">
<path d="M15 2L1 9V21H23V9L15 2Z" stroke="black" stroke-width="2"/>
<path d="M1 9H23" stroke="black" stroke-width="2"/>
<path d="M3 18C4.65685 18 6 16.6569 6 15C6 13.3431 4.65685 12 3 12C2.23165 12 1.53076 12.2889 1 12.7639V17.2361C1.53076 17.7111 2.23165 18 3 18Z" stroke="black" stroke-width="2"/>
<path d="M19 19C19 17.3431 17.6569 16 16 16C14.3431 16 13 17.3431 13 19C13 19.7684 13.2889 20.4692 13.7639 21H18.2361C18.7111 20.4692 19 19.7684 19 19Z" stroke="black" stroke-width="2"/>
</svg>
