<svg width="24" height="24" viewBox="0 0 24 24" fill="none" xmlns="http://www.w3.org/2000/svg">
<g clip-path="url(#clip0_18_6154)">
<path d="M7.25 12L10.75 15.5L16.75 8" stroke="black" stroke-width="2"/>
<path d="M20.2836 14.2191L22.5024 12.0002L20.2833 9.78108L21.0957 6.74911L18.0644 5.93688L17.252 2.90504L14.2197 3.71754L12.0002 1.49805L9.78095 3.71734L6.74942 2.90504L5.93704 5.93688L2.90577 6.74911L3.71798 9.78032L1.49805 12.0002L3.71763 14.2198L2.90535 17.2513L5.93752 18.0638L6.74984 21.0954L9.78099 20.2832L12.0002 22.5024L14.2197 20.283L17.2516 21.0954L18.0639 18.0638L21.0961 17.2513L20.2836 14.2191Z" stroke="black" stroke-width="2"/>
</g>
<defs>
<clipPath id="clip0_18_6154">
<rect width="24" height="24" fill="white"/>
</clipPath>
</defs>
</svg>
