<svg width="24" height="24" viewBox="0 0 24 24" fill="none" xmlns="http://www.w3.org/2000/svg">
<path d="M2.00146 16.4453L11.9999 22L21.9983 16.4453" stroke="black" stroke-width="2"/>
<path d="M12 11.25V13.25" stroke="black" stroke-width="2"/>
<path d="M12 2.75V0.75" stroke="black" stroke-width="2"/>
<path d="M15.0311 9.5V11.5" stroke="black" stroke-width="2"/>
<path d="M15.0311 4.5V2.5" stroke="black" stroke-width="2"/>
<path d="M8.96887 9.5V11.5" stroke="black" stroke-width="2"/>
<path d="M8.96887 4.5V2.5" stroke="black" stroke-width="2"/>
<path d="M18.0623 7.75V9.75" stroke="black" stroke-width="2"/>
<path d="M18.0623 6.25V4.25" stroke="black" stroke-width="2"/>
<path d="M5.93774 7.75V9.75" stroke="black" stroke-width="2"/>
<path d="M5.93774 6.25V4.25" stroke="black" stroke-width="2"/>
<path d="M21.0934 6V8" stroke="black" stroke-width="2"/>
<path d="M2.90662 6V8" stroke="black" stroke-width="2"/>
<path d="M12 16.1909V18.1909" stroke="black" stroke-width="2"/>
<path d="M15.0311 14.4409V16.4409" stroke="black" stroke-width="2"/>
<path d="M8.96887 14.4409V16.4409" stroke="black" stroke-width="2"/>
<path d="M18.0623 12.6909V14.6909" stroke="black" stroke-width="2"/>
<path d="M5.93774 12.6909V14.6909" stroke="black" stroke-width="2"/>
<path d="M21.0934 10.9409V12.9409" stroke="black" stroke-width="2"/>
<path d="M2.90662 10.9409V12.9409" stroke="black" stroke-width="2"/>
</svg>
