<svg width="24" height="24" viewBox="0 0 24 24" fill="none" xmlns="http://www.w3.org/2000/svg">
<path d="M12.9637 5H2L7.48183 13.6364L12.9637 5Z" stroke="black" stroke-width="2"/>
<path d="M7.48187 13.6328V20.9984" stroke="black" stroke-width="2"/>
<path d="M3 21H12" stroke="black" stroke-width="2"/>
<path d="M12.676 12.613C12.676 13.2461 12.9275 13.8532 13.3751 14.3009C13.8228 14.7485 14.4299 15 15.063 15C15.6961 15 16.3032 14.7485 16.7509 14.3009C17.1985 13.8532 17.45 13.2461 17.45 12.613C17.45 11.9799 17.1985 11.3728 16.7509 10.9251C16.3032 10.4775 15.6961 10.226 15.063 10.226C14.4299 10.226 13.8228 10.4775 13.3751 10.9251C12.9275 11.3728 12.676 11.9799 12.676 12.613Z" stroke="black" stroke-width="2"/>
<path d="M17.4498 12.5902V3H18.2679C20.8284 3 22.9041 5.0757 22.9041 7.63621" stroke="black" stroke-width="2"/>
</svg>
