<svg width="24" height="24" viewBox="0 0 24 24" fill="none" xmlns="http://www.w3.org/2000/svg">
<path d="M5 2H15" stroke="black" stroke-width="2"/>
<path d="M2 17C2 18.3261 2.52678 19.5979 3.46447 20.5355C4.40215 21.4732 5.67392 22 7 22C8.32608 22 9.59785 21.4732 10.5355 20.5355C11.4732 19.5979 12 18.3261 12 17C12 15.6739 11.4732 14.4021 10.5355 13.4645C9.59785 12.5268 8.32608 12 7 12C5.67392 12 4.40215 12.5268 3.46447 13.4645C2.52678 14.4021 2 15.6739 2 17Z" stroke="black" stroke-width="2"/>
<path d="M12 14C12 15.3261 12.5268 16.5979 13.4645 17.5355C14.4021 18.4732 15.6739 19 17 19C18.3261 19 19.5979 18.4732 20.5355 17.5355C21.4732 16.5979 22 15.3261 22 14C22 12.6739 21.4732 11.4021 20.5355 10.4645C19.5979 9.52678 18.3261 9 17 9C15.6739 9 14.4021 9.52678 13.4645 10.4645C12.5268 11.4021 12 12.6739 12 14Z" stroke="black" stroke-width="2"/>
<path d="M7 12L9.5 2" stroke="black" stroke-width="2"/>
<path d="M10.5 2L14 10" stroke="black" stroke-width="2"/>
<path d="M5 17C5 15.8954 5.89543 15 7 15" stroke="black" stroke-width="2"/>
<path d="M15 14C15 12.8954 15.8954 12 17 12" stroke="black" stroke-width="2"/>
</svg>
