<svg width="24" height="24" viewBox="0 0 24 24" fill="none" xmlns="http://www.w3.org/2000/svg">
<g clip-path="url(#clip0_1_1262)">
<path d="M21.9999 24.0001V14L13 11V3C13 1.89543 12.1046 1 11 1H9V15L4.54944 13.7284C3.27181 13.3634 2 14.3227 2 15.6515V16.0001L8.9999 23" stroke="black" stroke-width="2"/>
<path d="M9 5H13" stroke="black" stroke-width="2"/>
<path d="M16.5 5H13L14.933 1.90719C15.2857 1.34284 15.9043 1 16.5698 1C17.6358 1 18.5 1.86418 18.5 2.93019V3C18.5 4.10457 17.6046 5 16.5 5Z" stroke="black" stroke-width="2"/>
<path d="M16.5 5H13L14.933 8.09281C15.2857 8.65716 15.9043 9 16.5698 9C17.6358 9 18.5 8.13582 18.5 7.06981V7C18.5 5.89543 17.6046 5 16.5 5Z" stroke="black" stroke-width="2"/>
</g>
<defs>
<clipPath id="clip0_1_1262">
<rect width="24" height="24" fill="white"/>
</clipPath>
</defs>
</svg>
