<svg width="24" height="24" viewBox="0 0 24 24" fill="none" xmlns="http://www.w3.org/2000/svg">
<path d="M1 21V7H5.5L8 3H16L18.5 7H23V21H1Z" stroke="black" stroke-width="2"/>
<path d="M8.5 13.035C8.5 13.4946 8.59053 13.9497 8.76642 14.3744C8.94231 14.799 9.20012 15.1848 9.52513 15.5098C9.85013 15.8349 10.236 16.0927 10.6606 16.2686C11.0852 16.4444 11.5404 16.535 12 16.535C12.4596 16.535 12.9148 16.4444 13.3394 16.2686C13.764 16.0927 14.1499 15.8349 14.4749 15.5098C14.7999 15.1848 15.0577 14.799 15.2336 14.3744C15.4095 13.9497 15.5 13.4946 15.5 13.035C15.5 12.5753 15.4095 12.1202 15.2336 11.6956C15.0577 11.2709 14.7999 10.8851 14.4749 10.5601C14.1499 10.2351 13.764 9.97729 13.3394 9.80139C12.9148 9.6255 12.4596 9.53497 12 9.53497C11.5404 9.53497 11.0852 9.6255 10.6606 9.80139C10.236 9.97729 9.85013 10.2351 9.52513 10.5601C9.20012 10.8851 8.94231 11.2709 8.76642 11.6956C8.59053 12.1202 8.5 12.5753 8.5 13.035Z" stroke="black" stroke-width="2"/>
</svg>
