<svg width="24" height="24" viewBox="0 0 24 24" fill="none" xmlns="http://www.w3.org/2000/svg">
<path d="M9.67157 6.72343C9.45727 5.21917 9.92868 3.636 11.0858 2.47887C13.0384 0.52625 16.2042 0.52625 18.1569 2.47887C20.1095 4.43149 20.1095 7.59732 18.1569 9.54994C16.9932 10.7136 15.3988 11.1838 13.887 10.9605" stroke="black" stroke-width="2"/>
<path d="M9.67158 6.72266L13.9142 10.9653L6.13605 17.3293L3.30762 14.5008L9.67158 6.72266Z" stroke="black" stroke-width="2"/>
<path d="M4.72181 15.9148L4.13082 16.5058C2.66635 17.9703 2.66635 20.3447 4.13082 21.8091C5.59528 23.2736 7.96965 23.2736 9.43412 21.8091L15.8588 15.3845C17.128 14.1153 19.1857 14.1153 20.455 15.3845C21.7242 16.6537 21.7242 18.7115 20.455 19.9807L17.6213 22.8143" stroke="black" stroke-width="2"/>
</svg>
