<svg width="24" height="24" viewBox="0 0 24 24" fill="none" xmlns="http://www.w3.org/2000/svg">
<path d="M23 19H15C13.3431 19 12 20.3431 12 22C12 20.3431 10.6569 19 9 19H1V3H8C10.2091 3 12 4.79086 12 7C12 4.79086 13.7909 3 16 3H23V19Z" stroke="black" stroke-width="2"/>
<path d="M14 9V15H16.5C17.3284 15 18 14.3284 18 13.5V10.5C18 9.67157 17.3284 9 16.5 9H14Z" stroke="black" stroke-width="2"/>
<path d="M6 15.75L8 9H9L11 15.75" stroke="black" stroke-width="2"/>
<path d="M6.59277 13.75H10.4076" stroke="black" stroke-width="2"/>
</svg>
