<svg width="24" height="24" viewBox="0 0 24 24" fill="none" xmlns="http://www.w3.org/2000/svg">
<g clip-path="url(#clip0_4_808)">
<path d="M1 12C1 18.0751 5.92487 23 12 23C18.0751 23 23 18.0751 23 12C23 5.92487 18.0751 1 12 1" stroke="black" stroke-width="2"/>
<path d="M1.22021 9.8C1.40554 8.88701 1.70395 8.01508 2.10017 7.19946" stroke="black" stroke-width="2"/>
<path d="M5.39995 3.19897C4.56698 3.82464 3.82572 4.56581 3.19995 5.39871" stroke="black" stroke-width="2"/>
<path d="M9.79995 1.21997C8.88688 1.40531 8.01489 1.70375 7.19922 2.10002" stroke="black" stroke-width="2"/>
<path d="M6 12C6 13.5913 6.63214 15.1174 7.75736 16.2426C8.88258 17.3679 10.4087 18 12 18C13.5913 18 15.1174 17.3679 16.2426 16.2426C17.3679 15.1174 18 13.5913 18 12C18 10.4087 17.3679 8.88258 16.2426 7.75736C15.1174 6.63214 13.5913 6 12 6C10.4087 6 8.88258 6.63214 7.75736 7.75736C6.63214 8.88258 6 10.4087 6 12Z" stroke="black" stroke-width="2"/>
</g>
<defs>
<clipPath id="clip0_4_808">
<rect width="24" height="24" fill="white"/>
</clipPath>
</defs>
</svg>
