<svg width="24" height="24" viewBox="0 0 24 24" fill="none" xmlns="http://www.w3.org/2000/svg">
<path d="M19.7782 19.7782C21.8411 17.7153 23 14.9174 23 12C23 9.08262 21.8411 6.28473 19.7782 4.22183C17.7153 2.15893 14.9174 1 12 1C10.0524 1 8.15799 1.51652 6.5 2.47369C7.32553 2.95028 8.09246 3.53611 8.77818 4.22183C10.8411 6.28473 12 9.08262 12 12C12 14.9174 10.8411 17.7153 8.77818 19.7782C8.09246 20.4639 7.32553 21.0497 6.5 21.5263C8.15799 22.4835 10.0524 23 12 23C14.9174 23 17.7153 21.8411 19.7782 19.7782Z" stroke="black" stroke-width="2"/>
</svg>
