<svg width="24" height="24" viewBox="0 0 24 24" fill="none" xmlns="http://www.w3.org/2000/svg">
<path d="M1 3.5H18V20.5H1V3.5Z" stroke="black" stroke-width="2"/>
<path d="M21 6.8418C22.2508 8.38752 23 10.3558 23 12.4991C23 14.6424 22.2508 16.6107 21 18.1565" stroke="black" stroke-width="2"/>
<path d="M9.49951 8.5V6" stroke="black" stroke-width="2"/>
<path d="M9.49951 18V15.5" stroke="black" stroke-width="2"/>
<path d="M12 10.5V9.5C12 8.94772 11.5523 8.5 11 8.5H8.00002C7.44772 8.5 7 8.94772 7 9.5V10.4302C7 10.9069 7.33646 11.3173 7.80392 11.4108L11.1961 12.0892C11.6635 12.1827 12 12.5931 12 13.0698V14.5C12 15.0523 11.5523 15.5 11 15.5H8.00002C7.44772 15.5 7 15.0523 7 14.5V13.5" stroke="black" stroke-width="2"/>
</svg>
