<svg width="24" height="24" viewBox="0 0 24 24" fill="none" xmlns="http://www.w3.org/2000/svg">
<g clip-path="url(#clip0_5_5362)">
<path d="M12 1C14.9174 1 17.7153 2.15892 19.7782 4.22183C21.8411 6.28473 23 9.08262 23 12C23 14.9174 21.8411 17.7153 19.7782 19.7782C17.7153 21.8411 14.9174 23 12 23" stroke="black" stroke-width="2"/>
<path d="M4.85938 3.63281C5.36619 3.20032 5.91467 2.81188 6.49978 2.47407C7.08488 2.13626 7.69551 1.85548 8.32347 1.63281" stroke="black" stroke-width="2"/>
<path d="M1.63281 8.32445C1.85548 7.6965 2.13626 7.08586 2.47407 6.50075C2.81188 5.91565 3.20032 5.36717 3.63281 4.86035" stroke="black" stroke-width="2"/>
<path d="M1.1833 10.0005C1.06216 10.6557 1 11.3249 1 12.0005C1 12.6761 1.06216 13.3453 1.1833 14.0005" stroke="black" stroke-width="2"/>
<path d="M1.63281 15.6763C1.85548 16.3042 2.13626 16.9149 2.47407 17.5C2.81188 18.0851 3.20032 18.6336 3.63281 19.1404" stroke="black" stroke-width="2"/>
<path d="M4.86035 20.3682C5.36717 20.8007 5.91565 21.1891 6.50075 21.5269C7.08586 21.8647 7.69649 22.1455 8.32445 22.3682" stroke="black" stroke-width="2"/>
<path d="M12 16.4998V8.50513" stroke="black" stroke-width="2"/>
<path d="M8.48145 12.0182L11.9998 8.49988L15.5182 12.0182" stroke="black" stroke-width="2"/>
</g>
<defs>
<clipPath id="clip0_5_5362">
<rect width="24" height="24" fill="white"/>
</clipPath>
</defs>
</svg>
