<svg width="24" height="24" viewBox="0 0 24 24" fill="none" xmlns="http://www.w3.org/2000/svg">
<g clip-path="url(#clip0_5_3310)">
<path d="M9 17C13.4183 17 17 13.4183 17 9C17 8.38203 16.9299 7.78042 16.7973 7.2027C16.2196 7.07007 15.618 7 15 7C10.5817 7 7 10.5817 7 15C7 15.618 7.07007 16.2196 7.2027 16.7973C7.78042 16.9299 8.38203 17 9 17Z" stroke="black" stroke-width="2"/>
<path d="M10.3601 21.5181C9.93777 21.217 9.54591 20.8758 9.19011 20.5001C8.82256 20.112 8.49348 19.687 8.20898 19.2314" stroke="black" stroke-width="2"/>
<path d="M12.7773 22.6875C13.4827 22.891 14.2282 23.0001 14.9991 23.0001C15.77 23.0001 16.5155 22.8916 17.2209 22.6881" stroke="black" stroke-width="2"/>
<path d="M19.6387 21.5186C20.061 21.2175 20.4529 20.8762 20.8087 20.5005C21.1763 20.1124 21.5053 19.6875 21.7898 19.2319" stroke="black" stroke-width="2"/>
<path d="M22.9993 14.9996C22.9993 14.3495 22.9217 13.7175 22.7754 13.1123M22.9993 15.0007C22.9993 15.6508 22.9217 16.2829 22.7754 16.888" stroke="black" stroke-width="2"/>
<path d="M19.6387 8.48145C20.061 8.78262 20.4529 9.12383 20.8087 9.49954C21.1763 9.88763 21.5053 10.3125 21.7898 10.7681" stroke="black" stroke-width="2"/>
<path d="M4.36015 15.5181C3.93777 15.217 3.54591 14.8758 3.19011 14.5001C2.82256 14.112 2.49348 13.687 2.20898 13.2314" stroke="black" stroke-width="2"/>
<path d="M1.22391 7.11279C1.07755 7.71795 1 8.34997 1 9.0001C1 9.65024 1.07755 10.2823 1.22391 10.8874" stroke="black" stroke-width="2"/>
<path d="M2.20898 4.76863C2.49348 4.31303 2.82256 3.88812 3.19011 3.50002C3.54591 3.12432 3.93777 2.78311 4.36015 2.48193" stroke="black" stroke-width="2"/>
<path d="M6.77734 1.31255C7.48275 1.10905 8.2282 1 8.99912 1C9.77004 1 10.5155 1.1085 11.2209 1.312" stroke="black" stroke-width="2"/>
<path d="M13.6387 2.48145C14.061 2.78262 14.4529 3.12383 14.8087 3.49954C15.1763 3.88763 15.5053 4.31254 15.7898 4.76814" stroke="black" stroke-width="2"/>
</g>
<defs>
<clipPath id="clip0_5_3310">
<rect width="24" height="24" fill="white"/>
</clipPath>
</defs>
</svg>
