<svg width="24" height="24" viewBox="0 0 24 24" fill="none" xmlns="http://www.w3.org/2000/svg">
<g clip-path="url(#clip0_4_792)">
<path d="M8 12C8 13.0609 8.42143 14.0783 9.17157 14.8284C9.92172 15.5786 10.9391 16 12 16C13.0609 16 14.0783 15.5786 14.8284 14.8284C15.5786 14.0783 16 13.0609 16 12C16 10.9391 15.5786 9.92172 14.8284 9.17157C14.0783 8.42143 13.0609 8 12 8C10.9391 8 9.92172 8.42143 9.17157 9.17157C8.42143 9.92172 8 10.9391 8 12Z" stroke="black" stroke-width="2"/>
<path d="M1 12C1 14.9174 2.15893 17.7153 4.22183 19.7782C6.28473 21.8411 9.08262 23 12 23C14.9174 23 17.7153 21.8411 19.7782 19.7782C21.8411 17.7153 23 14.9174 23 12C23 9.08262 21.8411 6.28473 19.7782 4.22183C17.7153 2.15893 14.9174 1 12 1C9.08262 1 6.28473 2.15893 4.22183 4.22183C2.15893 6.28473 1 9.08262 1 12Z" stroke="black" stroke-width="2"/>
</g>
<defs>
<clipPath id="clip0_4_792">
<rect width="24" height="24" fill="white"/>
</clipPath>
</defs>
</svg>
