<svg width="934" height="355" viewBox="0 0 934 355" fill="none" xmlns="http://www.w3.org/2000/svg">
<path d="M693.479 349.073V0H803.123V120.385H805.808C816.102 102.484 836.688 88.6108 862.645 88.6108C910.53 88.6108 933.354 118.148 933.354 178.564V349.073H823.71V203.626C823.71 191.095 819.234 187.515 813.416 187.515C807.598 187.515 803.123 191.095 803.123 203.626V349.073H693.479Z" fill="black"/>
<path d="M573.082 354.443C493.87 354.443 431.216 305.215 429.873 223.765C428.53 135.154 498.345 88.6108 567.712 88.6108C634.842 88.6108 685.412 122.623 701.523 186.172L605.752 210.786C601.277 193.333 585.613 185.277 571.292 185.277C556.971 185.277 535.49 195.57 535.49 222.422C535.49 242.561 551.601 258.224 572.187 258.224C586.061 258.224 600.829 250.169 605.305 232.268L702.418 255.987C689.44 320.431 635.289 354.443 573.082 354.443Z" fill="black"/>
<path d="M262.252 354.443C193.78 354.443 145.447 300.74 145.447 222.422C145.447 142.314 194.675 88.6108 262.252 88.6108C293.579 88.6108 321.326 103.379 334.305 121.28H336.095L339.228 93.9812H436.789V349.073H339.228L336.095 322.221H334.305C318.641 342.808 290.894 354.443 262.252 354.443ZM291.342 259.12C311.481 259.12 327.592 243.904 327.592 221.527C327.592 200.493 311.481 184.382 291.342 184.382C271.651 184.382 255.092 200.941 255.092 221.527C255.092 243.904 271.651 259.12 291.342 259.12Z" fill="black"/>
<path d="M22.3765 81.0028C22.3765 29.5369 51.9134 0 107.855 0H158.873V78.7652H139.182C134.706 78.7652 132.021 81.0028 132.021 86.3732V93.9812H158.873V190.648H132.021V349.073H22.3765V190.648H0V93.9812H22.3765V81.0028Z" fill="black"/>
</svg>
