<svg width="24" height="24" viewBox="0 0 24 24" fill="none" xmlns="http://www.w3.org/2000/svg">
<path d="M5 17H19L17 23H7L5 17Z" stroke="black" stroke-width="2"/>
<path d="M12 17V14.7427C12 12.4326 11.2196 10.2031 9.80493 8.40637" stroke="black" stroke-width="2"/>
<path d="M9.85604 8.35617C8.30059 9.91161 5.74354 9.87644 4.14469 8.27759L2.99988 1.5L9.77747 2.64481C11.3763 4.24366 11.4115 6.80072 9.85604 8.35617Z" stroke="black" stroke-width="2"/>
<path d="M15.858 9.14205C17.0245 10.3086 18.9423 10.2822 20.1414 9.08311L21 4L15.9169 4.8586C14.7178 6.05771 14.6914 7.97548 15.858 9.14205Z" stroke="black" stroke-width="2"/>
<path d="M15.858 9.14209L14.8284 10.1716C13.0174 11.9826 12 14.4389 12 17" stroke="black" stroke-width="2"/>
</svg>
