<svg width="24" height="24" viewBox="0 0 24 24" fill="none" xmlns="http://www.w3.org/2000/svg">
<g clip-path="url(#clip0_4_722)">
<path d="M15 10V8.45833C15 7.65292 14.4124 7 13.6875 7H10.3125C9.58764 7 9.00002 7.65292 9.00001 8.45833L9 15.5417C9 16.3471 9.58762 17 10.3125 17H13.6875C14.4124 17 15 16.3471 15 15.5417V14" stroke="black" stroke-width="2"/>
<path d="M1 12C1 14.9174 2.15893 17.7153 4.22183 19.7782C6.28473 21.8411 9.08262 23 12 23C14.9174 23 17.7153 21.8411 19.7782 19.7782C21.8411 17.7153 23 14.9174 23 12C23 9.08262 21.8411 6.28473 19.7782 4.22183C17.7153 2.15893 14.9174 1 12 1C9.08262 1 6.28473 2.15893 4.22183 4.22183C2.15893 6.28473 1 9.08262 1 12Z" stroke="black" stroke-width="2"/>
</g>
<defs>
<clipPath id="clip0_4_722">
<rect width="24" height="24" fill="white"/>
</clipPath>
</defs>
</svg>
