<svg width="24" height="24" viewBox="0 0 24 24" fill="none" xmlns="http://www.w3.org/2000/svg">
<g clip-path="url(#clip0_4_1018)">
<path d="M1 5C1 6.06087 1.42143 7.07828 2.17157 7.82843C2.92172 8.57857 3.93913 9 5 9C6.06087 9 7.07828 8.57857 7.82843 7.82843C8.57857 7.07828 9 6.06087 9 5C9 3.93913 8.57857 2.92172 7.82843 2.17157C7.07828 1.42143 6.06087 1 5 1C3.93913 1 2.92172 1.42143 2.17157 2.17157C1.42143 2.92172 1 3.93913 1 5Z" stroke="black" stroke-width="2"/>
<path d="M1 19C1 20.0609 1.42143 21.0783 2.17157 21.8284C2.92172 22.5786 3.93913 23 5 23C6.06087 23 7.07828 22.5786 7.82843 21.8284C8.57857 21.0783 9 20.0609 9 19C9 17.9391 8.57857 16.9217 7.82843 16.1716C7.07828 15.4214 6.06087 15 5 15C3.93913 15 2.92172 15.4214 2.17157 16.1716C1.42143 16.9217 1 17.9391 1 19Z" stroke="black" stroke-width="2"/>
<path d="M23.51 20L3.18562 8.7137C1.83668 7.96462 1 6.54297 1 5" stroke="black" stroke-width="2"/>
<path d="M23.51 4L3.18562 15.2863C1.83668 16.0354 1 17.457 1 19" stroke="black" stroke-width="2"/>
</g>
<defs>
<clipPath id="clip0_4_1018">
<rect width="24" height="24" fill="white"/>
</clipPath>
</defs>
</svg>
