<svg width="24" height="24" viewBox="0 0 24 24" fill="none" xmlns="http://www.w3.org/2000/svg">
<path d="M9 16V10.5M9 10.5V2.5L17 6.5L9 10.5Z" stroke="black" stroke-width="2"/>
<path d="M7 18C7 18.5304 7.21071 19.0391 7.58579 19.4142C7.96086 19.7893 8.46957 20 9 20C9.53043 20 10.0391 19.7893 10.4142 19.4142C10.7893 19.0391 11 18.5304 11 18C11 17.4696 10.7893 16.9609 10.4142 16.5858C10.0391 16.2107 9.53043 16 9 16C8.46957 16 7.96086 16.2107 7.58579 16.5858C7.21071 16.9609 7 17.4696 7 18Z" stroke="black" stroke-width="2"/>
<path d="M17.5 14L21.5 18L17.5 22" stroke="black" stroke-width="2"/>
<path d="M11 18H21" stroke="black" stroke-width="2"/>
<path d="M7 18H1" stroke="black" stroke-width="2"/>
</svg>
