<svg width="24" height="24" viewBox="0 0 24 24" fill="none" xmlns="http://www.w3.org/2000/svg">
<path d="M2 23V2H2.5L13.5 22H14V1" stroke="black" stroke-width="2"/>
<path d="M18 4C18 4.53043 18.2107 5.03914 18.5858 5.41421C18.9609 5.78929 19.4696 6 20 6C20.5304 6 21.0391 5.78929 21.4142 5.41421C21.7893 5.03914 22 4.53043 22 4C22 3.46957 21.7893 2.96086 21.4142 2.58579C21.0391 2.21071 20.5304 2 20 2C19.4696 2 18.9609 2.21071 18.5858 2.58579C18.2107 2.96086 18 3.46957 18 4Z" stroke="black" stroke-width="2"/>
<path d="M17 9H23" stroke="black" stroke-width="2"/>
</svg>
