<svg width="24" height="24" viewBox="0 0 24 24" fill="none" xmlns="http://www.w3.org/2000/svg">
<path d="M6 6H16L19 10V21L17 23H5L3 21V10L6 6Z" stroke="black" stroke-width="2"/>
<path d="M2 6H20" stroke="black" stroke-width="2"/>
<path d="M6 0.5L9 6" stroke="black" stroke-width="2"/>
<path d="M20.5011 2.00221C20.2244 2.00221 20 1.77786 20 1.50111C20 1.22435 20.2244 1 20.5011 1" stroke="black" stroke-width="2"/>
<path d="M20.5004 0.999985C20.7771 0.999985 21.0015 1.22434 21.0015 1.50109C21.0015 1.77784 20.7771 2.0022 20.5004 2.0022" stroke="black" stroke-width="2"/>
<path d="M15.5011 3.00221C15.2244 3.00221 15 2.77786 15 2.50111C15 2.22435 15.2244 2 15.5011 2" stroke="black" stroke-width="2"/>
<path d="M15.5004 1.99998C15.7771 1.99998 16.0015 2.22434 16.0015 2.50109C16.0015 2.77784 15.7771 3.0022 15.5004 3.0022" stroke="black" stroke-width="2"/>
</svg>
