<svg width="24" height="24" viewBox="0 0 24 24" fill="none" xmlns="http://www.w3.org/2000/svg">
<g clip-path="url(#clip0_51_7446)">
<path d="M9 1L12 4L15 1" stroke="black" stroke-width="2"/>
<path d="M9 23L12 20L15 23" stroke="black" stroke-width="2"/>
<path d="M12 9V4" stroke="black" stroke-width="2"/>
<path d="M15 12H20" stroke="black" stroke-width="2"/>
<path d="M12 15V20" stroke="black" stroke-width="2"/>
<path d="M9.00017 12H4" stroke="black" stroke-width="2"/>
<path d="M23 9L20 12L23 15" stroke="black" stroke-width="2"/>
<path d="M1 9L4 12L1 15" stroke="black" stroke-width="2"/>
<path d="M9 12L12 9L15 12L12 15L9 12Z" stroke="black" stroke-width="2"/>
<path d="M13.5 10.5L17 7" stroke="black" stroke-width="2"/>
<path d="M17 4V7H20" stroke="black" stroke-width="2"/>
<path d="M10.5 13.5L7 17" stroke="black" stroke-width="2"/>
<path d="M4 17H7V20" stroke="black" stroke-width="2"/>
<path d="M10.5 10.5L7 7" stroke="black" stroke-width="2"/>
<path d="M7 4V7H4" stroke="black" stroke-width="2"/>
<path d="M17 20V17H20" stroke="black" stroke-width="2"/>
<path d="M13.5 13.5L17 17" stroke="black" stroke-width="2"/>
</g>
<defs>
<clipPath id="clip0_51_7446">
<rect width="24" height="24" fill="white"/>
</clipPath>
</defs>
</svg>
