<svg width="24" height="24" viewBox="0 0 24 24" fill="none" xmlns="http://www.w3.org/2000/svg">
<g clip-path="url(#clip0_1_1531)">
<path d="M9.65925 1.25195C9.88086 2.10876 10.328 2.89913 10.9645 3.53559C11.9021 4.47327 13.1739 5.00005 14.5 5.00005C15.7274 5.00005 16.9083 4.54876 17.8207 3.73806C17.6106 4.29603 17.5 4.89234 17.5 5.50005C17.5 6.82613 18.0268 8.0979 18.9645 9.03559C19.9021 9.97327 21.1739 10.5001 22.5 10.5001C22.6323 10.5001 22.7641 10.4948 22.8951 10.4844C22.9646 10.9838 23 11.4901 23 12.0001C23 14.9174 21.8411 17.7153 19.7782 19.7782C17.7153 21.8411 14.9174 23.0001 12 23.0001C9.08262 23.0001 6.28473 21.8411 4.22183 19.7782C2.15893 17.7153 1 14.9174 1 12.0001C1 9.08268 2.15893 6.28478 4.22183 4.22188C5.72384 2.71986 7.61551 1.69709 9.65925 1.25195Z" stroke="black" stroke-width="2"/>
<path d="M7.25 10H7.75V10.5H7.25V10Z" stroke="black" stroke-width="2"/>
<path d="M16 14H16.5V14.5H16V14Z" stroke="black" stroke-width="2"/>
<path d="M9.5 16H10V16.5H9.5V16Z" stroke="black" stroke-width="2"/>
</g>
<defs>
<clipPath id="clip0_1_1531">
<rect width="24" height="24" fill="white"/>
</clipPath>
</defs>
</svg>
