<svg width="24" height="24" viewBox="0 0 24 24" fill="none" xmlns="http://www.w3.org/2000/svg">
<g clip-path="url(#clip0_4_1056)">
<path d="M14.9976 16.45H9.99756V22.95H14.9976" stroke="black" stroke-width="2"/>
<path d="M17.9976 16.45H22.9976V22.95H17.9976" stroke="black" stroke-width="2"/>
<path d="M12.9976 19.7H19.9976" stroke="black" stroke-width="2"/>
<path d="M1 15.831C1 16.1962 1.07193 16.5578 1.21169 16.8952C1.35145 17.2326 1.5563 17.5392 1.81454 17.7975C2.07278 18.0557 2.37935 18.2605 2.71676 18.4003C3.05416 18.5401 3.41579 18.612 3.781 18.612C4.14621 18.612 4.50784 18.5401 4.84524 18.4003C5.18265 18.2605 5.48922 18.0557 5.74746 17.7975C6.0057 17.5392 6.21055 17.2326 6.35031 16.8952C6.49007 16.5578 6.562 16.1962 6.562 15.831C6.562 15.4658 6.49007 15.1042 6.35031 14.7667C6.21055 14.4293 6.0057 14.1228 5.74746 13.8645C5.48922 13.6063 5.18265 13.4014 4.84524 13.2617C4.50784 13.1219 4.14621 13.05 3.781 13.05C3.41579 13.05 3.05416 13.1219 2.71676 13.2617C2.37935 13.4014 2.07278 13.6063 1.81454 13.8645C1.5563 14.1228 1.35145 14.4293 1.21169 14.7667C1.07193 15.1042 1 15.4658 1 15.831Z" stroke="black" stroke-width="2"/>
<path d="M18.5623 13.4118C18.5623 11.8654 17.3088 10.6118 15.7624 10.6118C14.216 10.6118 12.9624 11.8654 12.9624 13.4118" stroke="black" stroke-width="2"/>
<path d="M6.5625 16.0626V4.50261L18.5624 1.30261V13.6626" stroke="black" stroke-width="2"/>
<path d="M6.5625 8.40996L18.5624 5.20996" stroke="black" stroke-width="2"/>
</g>
<defs>
<clipPath id="clip0_4_1056">
<rect width="24" height="24" fill="white"/>
</clipPath>
</defs>
</svg>
