<svg width="24" height="24" viewBox="0 0 24 24" fill="none" xmlns="http://www.w3.org/2000/svg">
<path d="M8 9C4.13401 9 1 12.134 1 16V21H23V18C23 15.2386 20.7614 13 18 13C16.7656 13 15.6356 13.4473 14.7634 14.1888C13.9652 11.2007 11.2396 9 8 9Z" stroke="black" stroke-width="2"/>
<path d="M10.5 7C10.8235 6.22368 11.2976 5.51003 11.9038 4.90381C13.1228 3.68482 14.7761 3 16.5 3C18.2239 3 19.8772 3.68482 21.0962 4.90381C22.3152 6.12279 23 7.77609 23 9.5C23 10.3666 22.827 11.2153 22.5 12" stroke="black" stroke-width="2"/>
</svg>
