<svg width="24" height="24" viewBox="0 0 24 24" fill="none" xmlns="http://www.w3.org/2000/svg">
<g clip-path="url(#clip0_4_706)">
<path d="M13.0168 1.04639L16.0909 9.5" stroke="black" stroke-width="2"/>
<path d="M10.9831 1.04639L7 12L9.54545 19" stroke="black" stroke-width="2"/>
<path d="M22.9552 13C22.9848 12.6706 23 12.3371 23 12C23 5.92487 18.0751 1 12 1C5.92487 1 1 5.92487 1 12C1 17.738 5.3935 22.4499 11 22.9552" stroke="black" stroke-width="2"/>
<path d="M1 12H13" stroke="black" stroke-width="2"/>
<path d="M19.075 15.7L17.5 13L15.925 15.7L13 16.6L15.025 18.625L14.35 22L17.5 20.5789L20.65 22L19.975 18.625L22 16.6L19.075 15.7Z" stroke="black" stroke-width="2"/>
</g>
<defs>
<clipPath id="clip0_4_706">
<rect width="24" height="24" fill="white"/>
</clipPath>
</defs>
</svg>
