<svg width="24" height="24" viewBox="0 0 24 24" fill="none" xmlns="http://www.w3.org/2000/svg">
<path d="M12.5339 7C12.5114 6.80622 12.5 6.61037 12.5 6.41334C12.5 5.06428 13.0359 3.77047 13.9898 2.81653C14.6267 2.17969 15.415 1.72915 16.2701 1.5C16.156 1.92577 16.0968 2.3681 16.0968 2.81653C16.0968 4.1656 16.6327 5.45941 17.5867 6.41334C18.5406 7.36728 19.8344 7.90319 21.1835 7.90319C21.6319 7.90319 22.0742 7.84398 22.5 7.72988C22.2708 8.58499 21.8203 9.37331 21.1835 10.0102C20.8307 10.363 20.4314 10.6586 20 10.8911" stroke="black" stroke-width="2"/>
<path d="M8 9C4.13401 9 1 12.134 1 16V21H23V18C23 15.2386 20.7614 13 18 13C16.7656 13 15.6356 13.4473 14.7634 14.1888C13.9652 11.2007 11.2396 9 8 9Z" stroke="black" stroke-width="2"/>
</svg>
