<svg width="24" height="24" viewBox="0 0 24 24" fill="none" xmlns="http://www.w3.org/2000/svg">
<g clip-path="url(#clip0_30_6564)">
<path d="M10.156 23C7.72766 23 5.3988 22.0354 3.68172 20.3183C1.96465 18.6012 1 16.2723 1 13.844C1 11.4157 1.96465 9.08684 3.68172 7.36976C4.82804 6.22345 6.24702 5.41248 7.78622 5C7.58084 5.76639 7.47426 6.56258 7.47426 7.36976C7.47426 9.79808 8.4389 12.1269 10.156 13.844C11.8731 15.5611 14.2019 16.5257 16.6302 16.5257C17.4374 16.5257 18.2336 16.4192 19 16.2138C18.5875 17.753 17.7766 19.172 16.6302 20.3183C14.9132 22.0354 12.5843 23 10.156 23Z" stroke="black" stroke-width="2"/>
<path d="M14.5 2.5L14.0307 3.53076L13 4.00005L14.0307 4.46924L14.5 5.5L14.9693 4.46924L16 4.00005L14.9693 3.53076L14.5 2.5Z" stroke="black" stroke-width="2"/>
<path d="M20 8L19.5307 9.03076L18.5 9.50005L19.5307 9.96924L20 11L20.4693 9.96924L21.5 9.50005L20.4693 9.03076L20 8Z" stroke="black" stroke-width="2"/>
</g>
<defs>
<clipPath id="clip0_30_6564">
<rect width="24" height="24" fill="white"/>
</clipPath>
</defs>
</svg>
