<svg width="24" height="24" viewBox="0 0 24 24" fill="none" xmlns="http://www.w3.org/2000/svg">
<path d="M1.5 7L4.38643 5.07571C6.27186 3.81876 8.72814 3.81876 10.6136 5.07571C12.3826 6.25504 14.666 6.33369 16.512 5.27886L20.5 3L16.5 2" stroke="black" stroke-width="2"/>
<path d="M1.5 14.5L4.38643 12.5757C6.27186 11.3188 8.72814 11.3188 10.6136 12.5757C12.3826 13.755 14.666 13.8337 16.512 12.7789L20.5 10.5L16.5 9.5" stroke="black" stroke-width="2"/>
<path d="M1.5 22L4.38643 20.0757C6.27186 18.8188 8.72814 18.8188 10.6136 20.0757C12.3826 21.255 14.666 21.3337 16.512 20.2789L20.5 18L16.5 17" stroke="black" stroke-width="2"/>
</svg>
