<svg width="24" height="24" viewBox="0 0 24 24" fill="none" xmlns="http://www.w3.org/2000/svg">
<path d="M2.25004 20.5L2.60359 20.8536L2.25004 21.2071L1.89648 20.8536L2.25004 20.5Z" stroke="black" stroke-width="2"/>
<path d="M8.75004 20.5L9.10359 20.8536L8.75004 21.2071L8.39648 20.8536L8.75004 20.5Z" stroke="black" stroke-width="2"/>
<path d="M15.25 20.5L15.6036 20.8536L15.25 21.2071L14.8965 20.8536L15.25 20.5Z" stroke="black" stroke-width="2"/>
<path d="M5.50004 16.5L5.85359 16.8536L5.50004 17.2071L5.14648 16.8536L5.50004 16.5Z" stroke="black" stroke-width="2"/>
<path d="M12 16.5L12.3536 16.8536L12 17.2071L11.6465 16.8536L12 16.5Z" stroke="black" stroke-width="2"/>
<path d="M18.5 16.5L18.8536 16.8536L18.5 17.2071L18.1465 16.8536L18.5 16.5Z" stroke="black" stroke-width="2"/>
<path d="M21.75 20.5L22.1036 20.8536L21.75 21.2071L21.3965 20.8536L21.75 20.5Z" stroke="black" stroke-width="2"/>
<path d="M0.991211 11.0083H3.78896" stroke="black" stroke-width="2"/>
<path d="M12 0V2.79775" stroke="black" stroke-width="2"/>
<path d="M4.21582 3.22363L6.19413 5.20194" stroke="black" stroke-width="2"/>
<path d="M20.2109 11.0083H23.0087" stroke="black" stroke-width="2"/>
<path d="M17.8062 5.20243L19.7845 3.22412" stroke="black" stroke-width="2"/>
<path d="M12 5.32471C8.86049 5.32471 6.31543 7.86977 6.31543 11.0093H17.6845C17.6845 7.86977 15.1395 5.32471 12 5.32471Z" stroke="black" stroke-width="2"/>
</svg>
