<svg width="24" height="24" viewBox="0 0 24 24" fill="none" xmlns="http://www.w3.org/2000/svg">
<g clip-path="url(#clip0_51_7396)">
<path d="M6 12C6 13.5913 6.63214 15.1174 7.75736 16.2426C8.88258 17.3679 10.4087 18 12 18C13.5913 18 15.1174 17.3679 16.2426 16.2426C17.3679 15.1174 18 13.5913 18 12C18 10.4087 17.3679 8.88258 16.2426 7.75736C15.1174 6.63214 13.5913 6 12 6C10.4087 6 8.88258 6.63214 7.75736 7.75736C6.63214 8.88258 6 10.4087 6 12Z" stroke="black" stroke-width="2"/>
<path d="M12 0V3" stroke="black" stroke-width="2"/>
<path d="M12 21V24" stroke="black" stroke-width="2"/>
<path d="M20.4856 3.51465L18.3643 5.63597" stroke="black" stroke-width="2"/>
<path d="M5.63646 18.3638L3.51514 20.4851" stroke="black" stroke-width="2"/>
<path d="M24 12H21" stroke="black" stroke-width="2"/>
<path d="M3 12H0" stroke="black" stroke-width="2"/>
<path d="M20.4856 20.4851L18.3643 18.3638" stroke="black" stroke-width="2"/>
<path d="M5.63646 5.63597L3.51514 3.51465" stroke="black" stroke-width="2"/>
</g>
<defs>
<clipPath id="clip0_51_7396">
<rect width="24" height="24" fill="white"/>
</clipPath>
</defs>
</svg>
