<svg width="24" height="24" viewBox="0 0 24 24" fill="none" xmlns="http://www.w3.org/2000/svg">
<g clip-path="url(#clip0_51_7532)">
<path d="M8 1C4.13401 1 1 4.13401 1 8V13H23V10C23 7.23858 20.7614 5 18 5C16.7656 5 15.6356 5.44734 14.7634 6.18877C13.9652 3.20074 11.2396 1 8 1Z" stroke="black" stroke-width="2"/>
<path d="M9 23.25L11 20.25" stroke="black" stroke-width="2"/>
<path d="M17.5 19.25L19.5 16.25" stroke="black" stroke-width="2"/>
<path d="M13 16.75V18.75" stroke="black" stroke-width="2"/>
<path d="M4 21V23" stroke="black" stroke-width="2"/>
<path d="M15.5 22.5C15.2766 22.5 15 22.3189 15 22.0955C15 22.0327 15.0146 21.9708 15.0427 21.9146L15.5 21.25L15.9573 21.9146C15.9854 21.9708 16 22.0327 16 22.0955C16 22.3189 15.7234 22.5 15.5 22.5Z" stroke="black" stroke-width="2"/>
<path d="M6.5 19C6.2766 19 6 18.8189 6 18.5955C6 18.5327 6.01462 18.4708 6.04271 18.4146L6.5 17.75L6.95729 18.4146C6.98538 18.4708 7 18.5327 7 18.5955C7 18.8189 6.7234 19 6.5 19Z" stroke="black" stroke-width="2"/>
</g>
<defs>
<clipPath id="clip0_51_7532">
<rect width="24" height="24" fill="white"/>
</clipPath>
</defs>
</svg>
